<svg width="34" height="34" viewBox="0 0 34 34" fill="none" xmlns="http://www.w3.org/2000/svg">
<path d="M26.5625 0.6875H7.4375C6.81618 0.6875 6.3125 1.19118 6.3125 1.8125V29.375C6.3125 29.9963 6.81618 30.5 7.4375 30.5H26.5625C27.1838 30.5 27.6875 29.9963 27.6875 29.375V1.8125C27.6875 1.19118 27.1838 0.6875 26.5625 0.6875Z" fill="#C6C5CA"/>
<path d="M17 24.875C20.1066 24.875 22.625 22.3566 22.625 19.25C22.625 16.1434 20.1066 13.625 17 13.625C13.8934 13.625 11.375 16.1434 11.375 19.25C11.375 22.3566 13.8934 24.875 17 24.875Z" fill="#898890"/>
<path d="M24.3124 23.1875C24.6537 23.1863 24.9872 23.2889 25.2688 23.4818C25.5503 23.6746 25.7665 23.9486 25.8885 24.2673C26.0106 24.5859 26.0329 24.9342 25.9523 25.2658C25.8717 25.5974 25.6921 25.8967 25.4374 26.1238V28.25H23.1874V26.1238C22.9327 25.8967 22.7531 25.5974 22.6725 25.2658C22.592 24.9342 22.6142 24.5859 22.7363 24.2673C22.8584 23.9486 23.0746 23.6746 23.3561 23.4818C23.6376 23.2889 23.9712 23.1863 24.3124 23.1875Z" fill="#FFDA44"/>
<path d="M9.68742 23.1875C10.0287 23.1863 10.3622 23.2889 10.6438 23.4818C10.9253 23.6746 11.1415 23.9486 11.2636 24.2673C11.3856 24.5859 11.4079 24.9342 11.3273 25.2658C11.2467 25.5974 11.0671 25.8967 10.8124 26.1238V28.25H8.56242V26.1238C8.30771 25.8967 8.12813 25.5974 8.04755 25.2658C7.96696 24.9342 7.9892 24.5859 8.11129 24.2673C8.23339 23.9486 8.44956 23.6746 8.73109 23.4818C9.01262 23.2889 9.34617 23.1863 9.68742 23.1875Z" fill="#D80027"/>
<path d="M25.4375 2.9375H8.5625V9.6875H25.4375V2.9375Z" fill="#BDFDFF"/>
<path d="M15.3125 2.9375H8.5625V9.6875C8.5625 7.89729 9.27366 6.1804 10.5395 4.91453C11.8054 3.64866 13.5223 2.9375 15.3125 2.9375Z" fill="white"/>
<path d="M18.125 17.5625V22.0625C18.125 22.3609 18.0065 22.647 17.7955 22.858C17.5845 23.069 17.2984 23.1875 17 23.1875C16.7016 23.1875 16.4155 23.069 16.2045 22.858C15.9935 22.647 15.875 22.3609 15.875 22.0625V17.5625H18.125Z" fill="#FF9811"/>
<path d="M18.125 16.4375V17.5625H15.875V16.4375C15.8759 16.1394 15.9947 15.8538 16.2055 15.643C16.4163 15.4322 16.7019 15.3134 17 15.3125C17.2977 15.3147 17.5826 15.4339 17.7931 15.6444C18.0036 15.8549 18.1228 16.1398 18.125 16.4375Z" fill="#D80027"/>
<path d="M28.25 33.875H27.6875C26.6436 33.8738 25.6427 33.4586 24.9046 32.7204C24.1664 31.9823 23.7512 30.9814 23.75 29.9375V28.25H24.875V29.9375C24.8759 30.6831 25.1725 31.398 25.6997 31.9253C26.227 32.4525 26.9419 32.7491 27.6875 32.75H28.25C28.9956 32.7491 29.7105 32.4525 30.2378 31.9253C30.765 31.398 31.0616 30.6831 31.0625 29.9375V21.5H32.1875V29.9375C32.1863 30.9814 31.7711 31.9823 31.0329 32.7204C30.2948 33.4586 29.2939 33.8738 28.25 33.875Z" fill="#00665A"/>
<path d="M6.3125 33.875H5.75C4.70608 33.8738 3.70525 33.4586 2.96708 32.7204C2.22892 31.9823 1.81369 30.9814 1.8125 29.9375V21.5H2.9375V29.9375C2.93839 30.6831 3.235 31.398 3.76225 31.9253C4.2895 32.4525 5.00435 32.7491 5.75 32.75H6.3125C7.05815 32.7491 7.773 32.4525 8.30025 31.9253C8.8275 31.398 9.12411 30.6831 9.125 29.9375V28.25H10.25V29.9375C10.2488 30.9814 9.83358 31.9823 9.09542 32.7204C8.35725 33.4586 7.35642 33.8738 6.3125 33.875Z" fill="#00665A"/>
<path d="M18.125 8.5625H15.875C15.7258 8.5625 15.5827 8.50324 15.4773 8.39775C15.3718 8.29226 15.3125 8.14918 15.3125 8V4.625C15.3125 4.47582 15.3718 4.33274 15.4773 4.22725C15.5827 4.12176 15.7258 4.0625 15.875 4.0625H18.125C18.2742 4.0625 18.4173 4.12176 18.5227 4.22725C18.6282 4.33274 18.6875 4.47582 18.6875 4.625V8C18.6875 8.14918 18.6282 8.29226 18.5227 8.39775C18.4173 8.50324 18.2742 8.5625 18.125 8.5625ZM16.4375 7.4375H17.5625V5.1875H16.4375V7.4375Z" fill="#FF5023"/>
<path d="M17.5625 11.375H16.4375V12.5H17.5625V11.375Z" fill="#FF9811"/>
<path d="M22.1707 13.284L21.3752 14.0795L22.1707 14.875L22.9662 14.0795L22.1707 13.284Z" fill="#FF9811"/>
<path d="M24.875 18.6875H23.75V19.8125H24.875V18.6875Z" fill="#FF9811"/>
<path d="M11.8294 13.2837L11.0339 14.0792L11.8294 14.8747L12.6249 14.0792L11.8294 13.2837Z" fill="#FF9811"/>
<path d="M10.25 18.6875H9.125V19.8125H10.25V18.6875Z" fill="#FF9811"/>
<path d="M20.9375 7.4375H19.8125V8.5625H20.9375V7.4375Z" fill="#FF5023"/>
<path d="M22.6251 8.56249C22.5127 8.56258 22.4028 8.52897 22.3096 8.466C22.2165 8.40304 22.1444 8.3136 22.1025 8.20924L20.9775 5.39674L22.0227 4.97824L22.6251 6.48574L23.2275 4.97824L24.2727 5.39674L23.1477 8.20924C23.1058 8.3136 23.0337 8.40304 22.9406 8.466C22.8474 8.52897 22.7375 8.56258 22.6251 8.56249Z" fill="#FF5023"/>
<path d="M2.375 2.375C2.07731 2.37721 1.79245 2.49644 1.58195 2.70695C1.37144 2.91745 1.25221 3.20231 1.25 3.5V11.375H3.5V3.5C3.49911 3.20191 3.3803 2.91627 3.16951 2.70549C2.95873 2.4947 2.67309 2.37589 2.375 2.375Z" fill="#E0E0E2"/>
<path d="M4.0625 18.6875V20.9375C4.06161 21.2356 3.9428 21.5212 3.73201 21.732C3.52123 21.9428 3.23559 22.0616 2.9375 22.0625H1.8125C1.51441 22.0616 1.22877 21.9428 1.01799 21.732C0.807203 21.5212 0.68839 21.2356 0.6875 20.9375V18.6875H4.0625Z" fill="#57565C"/>
<path d="M3.5 9.27688C3.67085 9.37552 3.81276 9.51735 3.91149 9.68815C4.01022 9.85896 4.0623 10.0527 4.0625 10.25V18.6875H0.6875V10.25C0.6875 9.95163 0.806026 9.66548 1.017 9.45451C1.22798 9.24353 1.51413 9.125 1.8125 9.125H2.9375C3.13508 9.12535 3.32909 9.17773 3.5 9.27688Z" fill="#D80027"/>
<path d="M32.75 3.5V12.5H30.5V3.5C30.5009 3.20191 30.6197 2.91627 30.8305 2.70549C31.0413 2.4947 31.3269 2.37589 31.625 2.375C31.9227 2.37721 32.2076 2.49644 32.4181 2.70695C32.6286 2.91745 32.7478 3.20231 32.75 3.5Z" fill="#E0E0E2"/>
<path d="M33.3125 18.6875V20.9375C33.3116 21.2356 33.1928 21.5212 32.982 21.732C32.7712 21.9428 32.4856 22.0616 32.1875 22.0625H31.0625C30.7644 22.0616 30.4788 21.9428 30.268 21.732C30.0572 21.5212 29.9384 21.2356 29.9375 20.9375V18.6875H33.3125Z" fill="#57565C"/>
<path d="M32.75 9.27688C32.9209 9.37552 33.0628 9.51735 33.1615 9.68815C33.2602 9.85896 33.3123 10.0527 33.3125 10.25V18.6875H29.9375V10.25C29.9375 9.95163 30.056 9.66548 30.267 9.45451C30.478 9.24353 30.7641 9.125 31.0625 9.125H32.1875C32.3851 9.12535 32.5791 9.17773 32.75 9.27688Z" fill="#FFDA44"/>
<path d="M2.375 3.5H1.8125V8H2.375V3.5Z" fill="#EEEEEF"/>
<path d="M10.25 28.25H9.125V28.8125H10.25V28.25Z" fill="#004D44"/>
<path d="M24.875 28.25H23.75V28.8125H24.875V28.25Z" fill="#004D44"/>
<path d="M32.1875 22.0625H31.0625V22.625H32.1875V22.0625Z" fill="#004D44"/>
<path d="M2.9375 22.0625H1.8125V22.625H2.9375V22.0625Z" fill="#004D44"/>
<path d="M2.375 10.8125C2.375 10.5018 2.12316 10.25 1.8125 10.25C1.50184 10.25 1.25 10.5018 1.25 10.8125V11.9375C1.25 12.2482 1.50184 12.5 1.8125 12.5C2.12316 12.5 2.375 12.2482 2.375 11.9375V10.8125Z" fill="#E5556F"/>
</svg>
