<svg width="36" height="24" viewBox="0 0 36 24" fill="none" xmlns="http://www.w3.org/2000/svg">
<path d="M29.25 10.5C25.5225 10.5 22.5 13.5225 22.5 17.25C22.5 20.9775 25.5225 24 29.25 24C32.9775 24 36 20.9775 36 17.25C36 13.5225 32.9775 10.5 29.25 10.5ZM28.5465 20.226L26.0145 17.7705L27.0585 16.725L28.545 18.135L31.719 14.8815L32.763 15.9255L28.5465 20.226ZM6 16.5H13.5V18H6V16.5ZM18 15H6V13.5H18V15ZM20.253 21H3.75C3.336 21 3 20.664 3 20.25V10.5H22.23C24.006 8.655 26.493 7.5 29.25 7.5C30.579 7.5 31.8435 7.7685 33 8.2515V3C33 1.344 31.656 0 30 0H3C1.344 0 0 1.344 0 3V21C0 22.656 1.344 24 3 24H22.23C21.4005 23.136 20.721 22.1235 20.253 21ZM3 3.75C3 3.336 3.336 3 3.75 3H29.25C29.664 3 30 3.336 30 3.75V6H3V3.75Z" fill="#53CE9A"/>
</svg>
