<svg width="36" height="41" viewBox="0 0 36 41" fill="none" xmlns="http://www.w3.org/2000/svg">
<path fill-rule="evenodd" clip-rule="evenodd" d="M35.9273 40.1043L32.5915 39.6869C31.9364 26.0815 21.7356 14.5228 7.90414 12.7923C7.32473 12.7198 6.77283 12.6559 6.21596 12.5913L11.5143 19.4829C12.0797 20.2185 11.9474 21.2766 11.2182 21.8502C10.8545 22.1363 10.4102 22.2473 9.98637 22.1943C9.56257 22.1413 9.1593 21.9242 8.87733 21.5573L0.366776 10.1829L11.4156 1.25557C12.1448 0.681932 13.1911 0.812831 13.7565 1.54843C14.3218 2.28404 14.1895 3.34214 13.4603 3.91578L6.6887 9.24281C7.21535 9.307 7.71572 9.3662 8.25375 9.43352C23.9309 11.3966 35.4389 24.6288 35.9273 40.1043Z" fill="#1F187D"/>
</svg>
