<svg width="46" height="22" viewBox="0 0 46 22" fill="none" xmlns="http://www.w3.org/2000/svg">
<path fill-rule="evenodd" clip-rule="evenodd" d="M-4.76837e-06 17.5377L1.97764 14.8192C14.205 20.8216 29.2543 17.4781 37.4544 6.20597C37.7979 5.73377 38.1206 5.28152 38.4463 4.82523L29.8523 6.13272C28.9351 6.27214 28.0728 5.64483 27.923 4.72921C27.8484 4.27258 27.9659 3.82992 28.2171 3.48454C28.4684 3.13915 28.8534 2.89105 29.3108 2.82151L43.3818 0.868706L45.8569 14.8561C46.0066 15.7718 45.3863 16.6244 44.4691 16.7638C43.5518 16.9033 42.6895 16.276 42.5398 15.3603L41.1492 6.85752C40.8385 7.28755 40.5448 7.69697 40.2258 8.13545C30.93 20.9109 13.7838 24.5899 -4.76837e-06 17.5377Z" fill="#1F187D"/>
</svg>
