<svg width="43" height="32" viewBox="0 0 43 32" fill="none" xmlns="http://www.w3.org/2000/svg">
<path fill-rule="evenodd" clip-rule="evenodd" d="M42.6254 1.26417L41.6669 4.48641C28.1381 2.90247 15.0636 11.0706 11.0893 24.4313C10.9228 24.991 10.7693 25.525 10.6143 26.0637L18.2811 21.9667C19.0995 21.5295 20.1216 21.8335 20.5679 22.6469C20.7905 23.0525 20.8272 23.5091 20.7054 23.9184C20.5837 24.3278 20.3034 24.69 19.8953 24.9081L7.27967 31.439L0.284212 19.0763C-0.162136 18.2629 0.138495 17.2522 0.956826 16.8151C1.77516 16.3779 2.79725 16.682 3.2436 17.4953L7.38858 25.0485C7.53823 24.5395 7.67865 24.0556 7.83325 23.5359C12.3396 8.39262 27.2792 -0.79076 42.6254 1.26417Z" fill="#1F187D"/>
</svg>
